<svg xmlns="http://www.w3.org/2000/svg" width="161.597" height="50" viewBox="0 0 161.597 50"><path d="M11.44-18.2h3.38V-6.448a8.836,8.836,0,0,1-.468,3.042,5.712,5.712,0,0,1-1.3,2.106A5.018,5.018,0,0,1,11.024-.078,8.431,8.431,0,0,1,8.4.312q-6.916,0-6.916-6.318V-18.2H5.044V-6.708A7.2,7.2,0,0,0,5.239-4.9,2.791,2.791,0,0,0,5.85-3.7a2.315,2.315,0,0,0,1.04.65,4.894,4.894,0,0,0,1.456.2,2.853,2.853,0,0,0,2.366-.91,4.717,4.717,0,0,0,.728-2.938Zm7.436,0h3.562V0H18.876Zm12.924,0H42.59v3.172H35.362v4.5h6.656v3.172H35.362V0H31.8Zm13.7,5.954a11.122,11.122,0,0,1,2.47-.741,15.919,15.919,0,0,1,2.99-.273,6.789,6.789,0,0,1,2.262.325,3.433,3.433,0,0,1,1.443.923,3.44,3.44,0,0,1,.754,1.43,7.3,7.3,0,0,1,.221,1.872q0,1.144-.078,2.3t-.091,2.275q-.013,1.118.065,2.171a8.176,8.176,0,0,0,.39,1.989H53.172l-.546-1.794H52.5A4.627,4.627,0,0,1,51.053-.377a4.378,4.378,0,0,1-2.379.585,4.638,4.638,0,0,1-1.638-.273,3.546,3.546,0,0,1-1.248-.78,3.553,3.553,0,0,1-.806-1.2A4,4,0,0,1,44.7-3.588,3.617,3.617,0,0,1,45.229-5.6a3.855,3.855,0,0,1,1.534-1.326,7.62,7.62,0,0,1,2.392-.7,16.95,16.95,0,0,1,3.107-.117,3.378,3.378,0,0,0-.208-2.093q-.39-.637-1.742-.637a11.876,11.876,0,0,0-2.145.208,7.843,7.843,0,0,0-1.859.546Zm4.29,9.672A2.6,2.6,0,0,0,51.4-3.029,3.174,3.174,0,0,0,52.288-4v-1.69a9.3,9.3,0,0,0-1.547-.026,5.645,5.645,0,0,0-1.313.234,2.207,2.207,0,0,0-.91.52,1.163,1.163,0,0,0-.338.858,1.476,1.476,0,0,0,.429,1.131A1.659,1.659,0,0,0,49.792-2.574ZM68.33-.806a5.65,5.65,0,0,1-1.885.871,8.671,8.671,0,0,1-2.275.3A6.319,6.319,0,0,1,61.531-.13a4.5,4.5,0,0,1-1.755-1.391A5.736,5.736,0,0,1,58.8-3.692,12.3,12.3,0,0,1,58.5-6.5a7.744,7.744,0,0,1,1.482-5.083A5.3,5.3,0,0,1,64.3-13.364a9.158,9.158,0,0,1,2.3.234,7.813,7.813,0,0,1,1.573.6l-.806,2.756a6.813,6.813,0,0,0-1.183-.442,5.213,5.213,0,0,0-1.339-.156,2.552,2.552,0,0,0-2.132.923A4.778,4.778,0,0,0,61.986-6.5a6.1,6.1,0,0,0,.182,1.534,3.751,3.751,0,0,0,.546,1.222,2.559,2.559,0,0,0,.949.819,2.961,2.961,0,0,0,1.365.3,4.219,4.219,0,0,0,1.456-.221A5.1,5.1,0,0,0,67.55-3.38Zm12.662-.312A6.615,6.615,0,0,1,78.873-.065a9.276,9.276,0,0,1-2.847.429,5.523,5.523,0,0,1-4.6-1.833A7.881,7.881,0,0,1,69.968-6.5a7.2,7.2,0,0,1,1.638-5.148,6.06,6.06,0,0,1,4.6-1.716,7.155,7.155,0,0,1,1.924.26,4.478,4.478,0,0,1,1.664.858,4.221,4.221,0,0,1,1.17,1.612,6.322,6.322,0,0,1,.442,2.522,11.33,11.33,0,0,1-.065,1.17q-.065.624-.195,1.3h-7.8a3.81,3.81,0,0,0,.845,2.47,3.238,3.238,0,0,0,2.483.832,5.291,5.291,0,0,0,1.911-.325,5.29,5.29,0,0,0,1.287-.663ZM76.156-10.66a2.367,2.367,0,0,0-1.963.793,3.921,3.921,0,0,0-.767,2.119h4.836a3.274,3.274,0,0,0-.429-2.158A1.912,1.912,0,0,0,76.156-10.66ZM89.832-3.588a.97.97,0,0,0-.442-.832A5.325,5.325,0,0,0,88.3-4.992q-.65-.26-1.43-.533a5.372,5.372,0,0,1-1.43-.754A4.13,4.13,0,0,1,84.346-7.5,3.691,3.691,0,0,1,83.9-9.412a3.719,3.719,0,0,1,1.144-2.938,4.825,4.825,0,0,1,3.3-1.014,10.617,10.617,0,0,1,2.678.312,7.748,7.748,0,0,1,1.872.7l-.754,2.444q-.6-.234-1.508-.494a6.688,6.688,0,0,0-1.846-.26q-1.508,0-1.508,1.17a.865.865,0,0,0,.442.754,5.833,5.833,0,0,0,1.092.533q.65.247,1.43.533a6.206,6.206,0,0,1,1.43.741A3.875,3.875,0,0,1,92.77-5.746a3.563,3.563,0,0,1,.442,1.872A3.961,3.961,0,0,1,91.951-.767,5.513,5.513,0,0,1,88.168.364,9.239,9.239,0,0,1,85.581.013a7.962,7.962,0,0,1-1.963-.819l.936-2.522a9.021,9.021,0,0,0,1.586.663,6.45,6.45,0,0,0,2.028.325,2.249,2.249,0,0,0,1.209-.286A1.047,1.047,0,0,0,89.832-3.588Z" transform="translate(68.385 35)" fill="#242833"/><circle cx="25" cy="25" r="25" fill="#3a3670"/><g transform="translate(12 12)"><g transform="translate(0 0)"><circle cx="3.273" cy="3.273" r="3.273" fill="#d3a0ff"/><circle cx="3.273" cy="3.273" r="3.273" transform="translate(9.771)" fill="#fc7faf"/><circle cx="3.273" cy="3.273" r="3.273" transform="translate(19.817)" fill="#f49420"/><circle cx="3.273" cy="3.273" r="3.273" transform="translate(0 10.046)" fill="#f9d009"/><circle cx="3.273" cy="3.273" r="3.273" transform="translate(9.771 10.046)" fill="#48c171"/><circle cx="3.273" cy="3.273" r="3.273" transform="translate(19.817 10.046)" fill="#84b54a"/><circle cx="3.273" cy="3.273" r="3.273" transform="translate(0 19.817)" fill="#1ac0e1"/><circle cx="3.273" cy="3.273" r="3.273" transform="translate(9.771 19.817)" fill="#80d2ee"/><circle cx="3.273" cy="3.273" r="3.273" transform="translate(19.817 19.817)" fill="#ccb0bb"/></g></g></svg>